/* XPM */
static char *_38255ab61664674ce9e08ba2e5da0eePZKLN09sgC1RUFn8[] = {
/* columns rows colors chars-per-pixel */
"64 64 3 1 ",
"  c black",
". c #4CAF50",
"X c #FF9800",
/* pixels */
"                                                    XX          ",
" XXXXXXXXXXXXXXXXXXXXXXXXXXXXXXXXXXXXXXXXXXXXXXXXXXXXXXXXXXXXXX ",
" XXXXXXXXXXXXXXXXXXXXXXXXXXXXXXXXXXXXXXXXXXXXXXXXXXXXXXXXXXXXXX ",
" XXXXXXXXXXXXXXXXXXXXXXXXXXXXXXXXXXXXXXXXXXX...XXXXXXXXXXXXXXXX ",
" XXXXXXXXXXXXXXXXXXXXXXXXXXXXXXXXXXXXXXXX.......XXXXXXXXXXXXXXX ",
" XXXXXXXXXXXXXXXXXXXXX.XXXXXXXXXXXXXXXXXXX...........XXXXXXXXXX ",
" XXXXXXXXXXXXXXXXXXXXXXXXXXXXXXXXXXXXXX..............XXXXXXXXXX ",
" XXXXXXXXXXXXXXXXXXXXXXXXX.XXXXXXXXXXXX............X.XXXXXXXXXX ",
" XXXXXXXXXXXXXX.XXXXXXXXXXXXXXXXXXXXXX...............XXXXXXXXXX ",
" XXXXXXXXXXXX..XXXXXXXXXXXXXXXXXXXXX................XXXXXXXXXXX ",
" XXXXXXXXXX..XXXXXXXXXXXXXXX.XX.....X...............XXXXXX.XXXX ",
" XXXXXXXXXXXXXXXXXXXXXXXXXXX......XXX...............XXXXX..XXXX ",
" XXXXXXXXXXXXXXXXXXXXXXXXX.X........X..............XXXXXXXXXXXX ",
" XXXXXXXXXXX........X...X...........X..............XXXXXXXXXXXX ",
" XXXXXXXXX..X.XX....XXX.............XX.............XXXXX.X.XXXX ",
" XXXXXXXXX............XX.............X............XXXX.....XXXX ",
" XXXXXXXX..............XX.....................X..XXXXXX.XXXXXXX ",
" XXXXXX.................XXXX..................X..XXXXXXXXXXXXXX ",
" XXXXX......X.................................XXXXXXXXXXXXXXXXX ",
" XXXXX.....XX.................................XX..........XXXXX ",
" XXXXX.....X.............................................X.XXXX ",
" XXXX......X.................................................XX ",
" XXXX........................................................XX ",
" XXXX...........X............................................XX ",
" XXXXX........XXX............XX..............................XX ",
" XXXXX........X...........XXXXXX.............................XX ",
" XXXXX......................XXX...............................X ",
" XXXXX........................X..............................XX ",
" XXXXX.......................................................XX ",
" XXXXX...........................X..........................XXX ",
" XXXXXX..X.........................X..........X.............XXX ",
" XXXXXX....X....................XXXXX.........X........X.XXXXXX ",
" XXXXXX.....X...XX............................X....XXXXXXXXXXXX ",
" XXXXXXXXX...X.XXX..........................XXX....XXXXXXXXXXXX ",
" XXXXXXXXXXXX..XXXX................................XXXXXXXXXXXX ",
" XXXXXXXXXXXXXXXXXXXX..............................XXXXXXXXXXXX ",
" XXXXXXXXXXXXXXXXXXXXX.......X.....................XXXXXXXXXXXX ",
" XXXXXXXXXXXXXXXXXXXXXX.....X.....................XXXXXX..XXXXX ",
" XXXXXXXXXXXXXXXXXXXXXXXXXX..X.....................XXXXX.XXXXXX ",
" XXXXXXXXXXXXXXXXXXXXXXXXXXX......................XXXXX.XXXXXXX ",
" XXXXXXXX.XXXXXXXXXXXXXXXXX.......................XXXXX....XXXX ",
" XXXXXXXX..XXXXXXXXXXXXXXXX......................XXXXXXXXXXXXXX ",
" XXXXXXXXXXXXXXXXXXXXXXXXX......................XXXXXXXXXXXXXXX ",
" XXXXXXXXXXXXXXXXXXXXXXXXX......................XXXXXXXXXXXXXXX ",
" XXXXXXXXXXXXXXXXXXXXXXXXX..........XX.....X..XXXXXXXXXXXXXXXXX ",
" XXXXXXXXXXXXXXXXXXXXXXXX...........XX...XX..XXXXXXXXXXXXX..XXX ",
" XXXXXXXXXXXXXXXX.XXXXXXX............X..X..XXXXXXXXXXXXX...XXXX ",
" XXXXXXXXXXXXXXXXX.XXXXXX............XXX..XXXXXXXXXXXXXXXXXXXXX ",
" XXXXXXXXXXXXXXXXXX..XXXX..............XXXXXXXXXXXXXXXXXXXXXXXX ",
" XXXXXXXXXX.XXXXXXXX.XXXX..............XXXXXXXXXXXXXXXXXXXXXXXX ",
" XXXXXXXXXX..XXXXXXXXXXXX.............XXXXXXXXXXXXXXXXXXXXXXXXX ",
" XXXXXXX.XXXXXXXXXXXXXXXXX............XXXXXXXXXX..XXXXXXXXXXXXX ",
" XXXXXXX.XXXXXXXXXXXXXXXXX............XXXXXXXXX....XXXXXXXXXXXX ",
" XXXXXXX.XXXXXXXXXXXXXXXXX...........XXXXXXXXXX...XXXXXXXXX..XX ",
" XXXXXXX.XXXXXXXXXXXXXXXXXX.........XXXXXXXXXX.XXXXXXXXXXXXX.XX ",
" XXXXXXXXXXXXXXXXXXXXXXXXXXX.X....XXXXXXXXXXXX.XXXXXXXXXXXXX.XX ",
" XXXXXXXXXXXXXXXXXX.XXXXXXXXX...XXXXXXXXXXXXXXXXXXXXXXXXXXXXX.X ",
" XXXXXXXXXXXXXXXXXX..XXXXXXXXXXXXXXXXXXXXXXXXXXXXXXXXXXXXXXXXXX ",
" XXXXXXXXXXXXXXXXXXX..XXXXXXXXXXXXXXXXXXXXXXXXXXXXXXXXXXXXXXXXX ",
" XXXXXXXXXXXXXXXXXXXXXXXXXXXXXXXXXXXXXXXXXXXXX....XXXXXXXXXXXXX ",
" XXXXXXXXXXXXXXXXXXXXXXXXXXXXXXXXXXXXXXXXXX...XXXXXXXXXXXXXXXXX ",
" XXXXXXXXXXXXXXXXXXXXXXXXXXXXXXXXXXXXXXXXXXXXXXXXXXXXXXXXXXXXXX ",
" XXXXXXXXXXXXXXXXXXXXXXXXXXXXXXXXXXXXXXXXXXXXXXXXXXXXXXXXXXXXXX ",
"                                                                "
};
